<?xml version="1.0" encoding="UTF-8" standalone="no"?> <!-- Created with Vectornator for iOS (http://vectornator.io/) --><!DOCTYPE svg PUBLIC "-//W3C//DTD SVG 1.1//EN" "http://www.w3.org/Graphics/SVG/1.1/DTD/svg11.dtd">
<svg height="100%" style="fill-rule:evenodd;clip-rule:evenodd;stroke-linecap:round;stroke-linejoin:round;" xmlns:xlink="http://www.w3.org/1999/xlink" xmlns="http://www.w3.org/2000/svg" xml:space="preserve" width="100%" xmlns:vectornator="http://vectornator.io" version="1.1" viewBox="0 0 1024 1024">
<metadata>
<vectornator:setting key="DisplayWhiteBackground" value="0"/>
<vectornator:setting key="RulersVisible" value="1"/>
<vectornator:setting key="OutlineMode" value="1"/>
<vectornator:setting key="Units" value="Pixels"/>
<vectornator:setting key="SnapToEdges" value="0"/>
<vectornator:setting key="New" value="1"/>
<vectornator:setting key="DynamicGuides" value="0"/>
<vectornator:setting key="SnapToPoints" value="0"/>
<vectornator:setting key="SnapToGrid" value="0"/>
<vectornator:setting key="SnapToGuides" value="1"/>
<vectornator:setting key="GridSpacing" value="36"/>
</metadata>
<defs/>
<g id="Layer 1" vectornator:layerName="Layer 1">
<path stroke="#000000" stroke-width="1" d="M562.415+243.797" fill="#000000" stroke-linecap="butt" opacity="1" stroke-linejoin="round"/>
<path stroke="#000000" stroke-width="1" d="M499.267+68.0791C449.973+144.561+381.052+213.927+349.589+298.97C297.256+440.423+294.718+649.841+490.204+685.957C514.78+690.497+554.03+698.538+578.411+688.403C647.241+659.792+683.276+565.227+696.674+502.449C706.192+457.855+716.868+394.125+704.098+349.285C689.565+298.251+648.579+248.796+619.85+204.622C604.313+180.732+594.484+152.136+577.724+129.257C558.458+102.955+528.477+83.3999+510.058+56.7022C503.126+46.6556+499.215+34.1022+490.059+25.1122C490.059+25.1122+468.007+122.087+490.58+45.158C492.398+38.962+489.632+31.8812+492.267+25.9476C492.383+25.6866+506.659+40.6256+507.803+41.6528C518.24+51.0169+526.607+63.3287+536.793+73.6632C568.258+105.586+591.106+135.576+613.197+174.211C620.384+186.78+627.895+200.13+637.148+211.491C666.899+248.014+702.564+303.704+714.917+348.863C734.779+421.472+706.591+542.111+669.052+605.901C649.792+638.63+612.448+696.119+566.918+700.207C455.341+710.225+354.732+650.761+317.607+552.958C308.834+529.845+314.6+497.926+314.539+473.826C314.334+392.2+325.05+308.856+366.101+235.404" fill="#000000" stroke-linecap="butt" opacity="1" stroke-linejoin="round"/>
<path stroke="#000000" stroke-width="1" d="M523.173+100.149C541.116+252.538+528.553+409.372+518.812+561.648C514.124+634.933+519.614+709.364+516.341+782.815C514.201+830.852+506.306+878.759+500.265+926.45C499.202+934.844+491.051+971.16+496.717+973.503L496.031+973.931C482.636+967+488.429+937.569+489.481+925.533C494.139+872.259+503.417+819.312+503.429+765.738C503.476+545.185+538.248+321.338+514.603+101.092" fill="#000000" stroke-linecap="butt" opacity="1" stroke-linejoin="round"/>
<path stroke="#000000" stroke-width="1" d="M472.102+645.309C428.277+589.818+409.389+535.701+401.732+467.489C399.728+449.636+413.455+371.756+389.634+367.7L389.98+366.944C417.351+372.48+408.887+417.743+409.126+437.315C410.058+513.584+431.542+575.157+478.62+636.775" fill="#000000" stroke-linecap="butt" opacity="1" stroke-linejoin="round"/>
<path stroke="#000000" stroke-width="1" d="M263.398+1546.92C262.981+1538.39+262.393+1537.78+269.426+1537.78C269.712+1537.78+273.065+1537.82+273.067+1537.73C273.107+1535.34+261.084+1526.97+271.246+1525.46C272.619+1525.26+274.199+1523.55+275.276+1524.42C279.379+1527.76+280.966+1542.12+278.451+1546.92C276.979+1549.73+272.82+1556.75+271.806+1553.74C271.248+1552.09+276.881+1507.14+288.196+1533.28C294.537+1547.92+292.254+1567.87+291.404+1583.33L291.138+1583.33C290.635+1574.17+294.468+1524.72+276.847+1529.63C276.676+1529.68+277.056+1538.95+277.014+1539.64C276.565+1547+273.556+1546.46+270.687+1552.85C269.526+1555.43+275.572+1549.48+276.784+1546.92C277.86+1544.65+277.274+1530.37+276.319+1527.55C275.585+1525.39+271.969+1530.21+271.35+1527.91C270.383+1524.33+275.546+1535.37+273.962+1538.72C273.252+1540.22+271.684+1539.68+270.336+1539.68C263.555+1539.68+265.063+1536.03+264.531+1546.92" fill="#abac66" stroke-linecap="butt" opacity="1" stroke-linejoin="round"/>
<path stroke="#000000" stroke-width="1" d="M299.075+1569.68C297.027+1571.16+290.579+1530.33+290.604+1529.63C290.637+1528.75+291.973+1527.71+292.883+1527.39C309.73+1521.47+285.23+1561.67+298.941+1569.68C306.784+1574.26+309.207+1523.25+293.3+1528.23C287.551+1530.02+296.646+1535.78+296.556+1538.73" fill="#abac66" stroke-linecap="butt" opacity="1" stroke-linejoin="round"/>
<path stroke="#000000" stroke-width="1" d="M548.44+594.754C577.343+541.256+614.497+494.408+645.957+442.871L646.98+443.372C627.628+497.826+590.955+550.382+561.382+600.301" fill="#000000" stroke-linecap="butt" opacity="1" stroke-linejoin="round"/>
<path stroke="#000000" stroke-width="1" d="M552.499+398.055C576.615+350.599+610.599+292.148+611.535+238.157L612.358+238.208C613.348+297.612+587.467+351.58+560.324+403.966" fill="#000000" stroke-linecap="butt" opacity="1" stroke-linejoin="round"/>
</g>
</svg>
